<svg xmlns="http://www.w3.org/2000/svg" viewBox="0 0 512 512" width="100%" height="100%">
  <defs>
    <radialGradient id="purpleGradient" cx="50%" cy="50%" r="50%" fx="50%" fy="50%">
      <stop offset="0%" stop-color="#d8bfd8" />
      <stop offset="70%" stop-color="#9966ff" />
      <stop offset="100%" stop-color="#7733ff" />
    </radialGradient>
  </defs>
  <g>
    <!-- Caule -->
    <path d="M256 420 L256 512" stroke="#2e8b57" stroke-width="8" />
    <!-- Folhas -->
    <path d="M256 460 C220 440, 200 470, 180 460" fill="none" stroke="#2e8b57" stroke-width="6" />
    <path d="M256 480 C290 460, 310 490, 330 480" fill="none" stroke="#2e8b57" stroke-width="6" />
    <!-- Pétalas externas -->
    <path d="M256 256 C150 200, 100 300, 180 350 C100 400, 150 500, 256 450 C362 500, 412 400, 332 350 C412 300, 362 200, 256 256" fill="url(#purpleGradient)" />
    <!-- Pétalas internas -->
    <path d="M256 270 C190 230, 160 300, 210 340 C160 380, 190 450, 256 410 C322 450, 352 380, 302 340 C352 300, 322 230, 256 270" fill="#b380ff" />
    <!-- Centro da rosa -->
    <circle cx="256" cy="340" r="30" fill="#7733ff" />
    <!-- Brilho -->
    <circle cx="240" cy="330" r="8" fill="#ffffff" opacity="0.6" />
  </g>
</svg>